<!-- Generated by IcoMoon.io -->
<svg version="1.1" xmlns="http://www.w3.org/2000/svg" width="26" height="32" viewBox="0 0 26 32">
<title>account</title>
<path d="M26 32h-3.128c0-5.473-4.431-9.921-9.873-9.921-5.449 0-9.871 4.448-9.871 9.921h-3.128c0-7.262 5.832-13.163 12.999-13.163 7.169 0 13.001 5.901 13.001 13.163z"></path>
<path d="M12.999 17.782c-4.723 0-8.576-3.986-8.576-8.892 0-4.896 3.845-8.89 8.576-8.89 4.733 0 8.578 3.986 8.578 8.89 0 4.906-3.845 8.892-8.578 8.892zM12.999 3.242c-3.005 0-5.449 2.533-5.449 5.648 0 3.117 2.444 5.65 5.449 5.65 3.007 0 5.451-2.533 5.451-5.65 0-3.115-2.444-5.648-5.451-5.648z"></path>
</svg>
