<svg height="32" viewBox="0 0 32 32" width="32" xmlns="http://www.w3.org/2000/svg">
    <path d="m31.5 8.333h-31c-.276 0-.5.223-.5.5v11.548c.001 1.484 1.204 2.686 2.687 2.687h26.625c1.484-.001 2.686-1.204 2.687-2.687v-11.548c0-.277-.224-.5-.5-.5zm-28.301 11.492h25.602v2.244h-25.602zm25.602-1h-25.603v-.867c.001-.76.617-1.376 1.377-1.377h22.847c.761.001 1.376.617 1.377 1.377v.867h.001zm2.199 1.556c-.001.743-.487 1.399-1.199 1.615v-4.039c-.001-1.312-1.065-2.376-2.377-2.377h-22.848c-1.313.001-2.375 1.065-2.377 2.377v4.039c-.711-.216-1.198-.872-1.199-1.615v-11.048h30zm-26.157-6.698c.496 0 .943-.299 1.133-.757s.085-.986-.266-1.337-.879-.455-1.337-.266-.757.637-.757 1.133c.001.677.549 1.226 1.227 1.227zm0-1.453c.202 0 .303.244.16.387s-.387.042-.387-.16c0-.125.101-.226.227-.227zm3.188 1.453c.496 0 .943-.299 1.133-.757s.085-.986-.266-1.337-.878-.456-1.337-.266-.757.637-.757 1.133c.001.677.55 1.226 1.227 1.227zm0-1.453c.202 0 .303.244.16.387s-.387.042-.387-.16c0-.125.101-.226.227-.227zm3.188 1.453c.496 0 .943-.299 1.133-.757s.085-.986-.266-1.337-.878-.456-1.337-.266-.757.637-.757 1.133c.001.677.549 1.226 1.227 1.227zm0-1.453c.202 0 .303.244.16.387s-.387.042-.387-.16c0-.125.101-.227.227-.227zm9.366.227c0-.276.224-.5.5-.5h6.187c.277 0 .5.224.5.5s-.223.5-.5.5h-6.187c-.276 0-.5-.224-.5-.5z"/>
</svg>
