<svg height="32" viewBox="0 0 32 32" width="32" xmlns="http://www.w3.org/2000/svg"><path d="m28.25 7.5h-3.809c-.496-4.217-4.092-7.5-8.441-7.5s-7.944 3.283-8.441 7.5h-3.809c-.69 0-1.25.56-1.25 1.25v22c0 .69.56 1.25 1.25 1.25h24.5c.69 0 1.25-.56 1.25-1.25v-22c0-.69-.56-1.25-1.25-1.25zm-12.25-5c2.968 0 5.439 2.166 5.916 5h-11.832c.477-2.834 2.948-5 5.916-5zm11 27h-22v-19.5h2.5v3.75c0 .69.56 1.25 1.25 1.25s1.25-.56 1.25-1.25v-3.75h12v3.75c0 .69.56 1.25 1.25 1.25s1.25-.56 1.25-1.25v-3.75h2.5z"/></svg>