<svg height="32" viewBox="0 0 32 32" width="32" xmlns="http://www.w3.org/2000/svg"><path d="m28.862 8.481h-4.388v-2.561c0-1.794-1.408-3.253-3.14-3.253h-6.459c-.346 0-.625.29-.625.648s.279.648.625.648h6.459c1.042 0 1.889.878 1.889 1.957v2.561h-12.556c-1.731 0-3.139 1.46-3.139 3.253v6.521h-2.102c-.881 0-1.732.33-2.396.929l-1.779 1.603v-14.867c0-1.079.847-1.957 1.889-1.957h6.238c.345 0 .625-.29.625-.648s-.281-.648-.626-.648h-6.238c-1.731 0-3.139 1.46-3.139 3.253v16.287c0 .543.637.847 1.036.489l2.814-2.535c.436-.394.996-.611 1.575-.611h2.103v2.562c0 1.794 1.408 3.253 3.139 3.253h15.907c.579 0 1.139.217 1.575.611l2.817 2.538c.396.357 1.035.053 1.035-.49v-16.29c0-1.794-1.408-3.253-3.139-3.253zm1.889 18.122-1.782-1.605c-.664-.599-1.516-.928-2.396-.928h-15.907c-1.042 0-1.889-.878-1.889-1.957v-10.378c0-1.079.847-1.956 1.889-1.956h13.181.005 5.009c1.042 0 1.889.878 1.889 1.957v14.868zm-18.275-22.69c.315-.135.468-.521.338-.846s-.501-.485-.816-.35c-.316.135-.467.52-.337.846s.5.485.815.35z"/></svg>