<svg height="32" viewBox="0 0 32 32" width="32" xmlns="http://www.w3.org/2000/svg"><path d="m28.431 3.556h-5.516c-.002 0-.003-.001-.004-.001h-5.761c-.002 0-.003.001-.004.001h-12.564c-.611 0-1.106.495-1.106 1.106s.495 1.106 1.106 1.106h11.462v6.656c0 .608.498 1.106 1.106 1.106h5.761c.608 0 1.106-.498 1.106-1.106v-6.656h4.414c.748 0 1.357.609 1.357 1.358v17.495c0 .748-.609 1.357-1.357 1.357h-17.495c-.748 0-1.357-.609-1.357-1.357v-12.155c0-.611-.495-1.106-1.106-1.106h-2.924c-.611 0-1.106.495-1.106 1.106s.495 1.106 1.106 1.106h1.818v11.049c0 1.968 1.601 3.569 3.569 3.569h17.495c1.968 0 3.569-1.602 3.569-3.569v-17.496c0-1.967-1.601-3.569-3.569-3.569zm-6.626 7.761h-3.549v-5.549h3.549z"/><path d="m1.106 9.668h6.822c.611 0 1.106-.495 1.106-1.106s-.495-1.106-1.106-1.106h-6.822c-.611 0-1.106.496-1.106 1.106s.495 1.106 1.106 1.106z"/><path d="m26.359 23.884c.611 0 1.106-.495 1.106-1.106s-.495-1.106-1.106-1.106h-3.453c-.611 0-1.106.495-1.106 1.106s.495 1.106 1.106 1.106z"/></svg>