<svg height="32" viewBox="0 0 32 32" width="32" xmlns="http://www.w3.org/2000/svg"><path d="m14.377 5.25c.164 0 .325-.067.442-.183s.183-.277.183-.442c0-.164-.067-.326-.183-.442s-.277-.183-.442-.183-.326.067-.442.183-.183.277-.183.442.067.326.183.442.278.183.442.183z"/><path d="m29.875 14.449v-2.863c0-1.688-1.245-3.091-2.865-3.339-.067-.025-.139-.039-.215-.039h-5.911c-.132 0-.261.017-.385.046v-3.004c0-.689-.561-1.25-1.25-1.25h-2.313c-.345 0-.625.28-.625.625s.28.625.625.625h2.313v15.245h-18v-1.75h7.344c.345 0 .625-.28.625-.625s-.28-.625-.625-.625h-7.344v-12.245h10.563c.345 0 .625-.28.625-.625s-.279-.625-.625-.625h-10.563c-.689 0-1.25.561-1.25 1.25v18.369c0 .345.28.625.625.625h3c0 1.861 1.514 3.375 3.375 3.375s3.375-1.514 3.375-3.375h11.25c0 1.861 1.514 3.375 3.375 3.375s3.375-1.514 3.375-3.375h1.832c.989 0 1.793-.804 1.793-1.793v-5.324c0-1.302-.909-2.395-2.125-2.679zm.76 2.102h-.751c-.005 0-.009-.004-.009-.009v-.777c.342.157.615.439.76.786zm-4.137-7.092c1.173 0 2.127.954 2.127 2.127v2.783h-5.25v-4.911h3.123zm-5.998.384c0-.212.173-.385.385-.385h1.241v5.535c0 .345.28.625.625.625h5.875v.923c0 .694.565 1.259 1.259 1.259h.866v2.693h-10.251zm-16.637 13.159c-.03-.005-.061-.007-.092-.007h-2.521v-1.25h3.485c-.379.344-.68.773-.872 1.257zm3.137 3.367c-1.171 0-2.125-.953-2.125-2.125s.953-2.125 2.125-2.125 2.125.953 2.125 2.125c-.001 1.171-.954 2.125-2.125 2.125zm3.134-3.374c-.193-.481-.492-.908-.869-1.25h9.985v1.25zm10.366 0v-1.25h2.235c-.377.342-.677.769-.869 1.25zm4.5 3.374c-1.171 0-2.125-.953-2.125-2.125s.953-2.125 2.125-2.125c1.171 0 2.125.953 2.125 2.125s-.954 2.125-2.125 2.125zm5.207-3.374h-2.073c-.193-.481-.492-.908-.869-1.25h3.485v.707c-.001.299-.244.543-.543.543z"/><path d="m23.672 16.869h-.922c-.345 0-.625.28-.625.625s.28.625.625.625h.922c.345 0 .625-.28.625-.625s-.28-.625-.625-.625z"/><path d="m10.621 17.677c-.116.116-.183.277-.183.443s.067.325.183.442c.116.116.277.183.442.183s.326-.067.442-.183c.116-.117.183-.278.183-.442 0-.165-.067-.326-.183-.443s-.277-.183-.442-.183-.326.067-.442.183z"/></svg>