<!-- Generated by IcoMoon.io -->
<svg version="1.1" xmlns="http://www.w3.org/2000/svg" width="42" height="32" viewBox="0 0 42 32">
<title>delivery</title>
<path d="M4.16 1.28c-2.282 0-4.16 1.878-4.16 4.16v18.025c0 2.28 1.878 4.16 4.16 4.16h1.585c0.624 2.38 2.781 4.16 5.346 4.16s4.724-1.78 5.348-4.16l10.1-0.002c0.624 2.382 2.783 4.162 5.35 4.162s4.728-1.78 5.352-4.162h2.97c0.765 0 1.387-0.622 1.387-1.387l0.002-12.472c0-1.163-0.487-2.267-1.333-3.051l-5.968-5.549c-0.776-0.722-1.795-1.109-2.837-1.109h-6.76c-0.578-1.606-2.111-2.775-3.904-2.775h-16.638zM4.16 4.052h16.64c0.792 0 1.387 0.595 1.387 1.383v9.705h-9.705c-1.891-0.044-1.891 2.816 0 2.773h9.703v6.935h-5.747c-0.624-2.38-2.783-4.162-5.348-4.162-2.567 0-4.722 1.783-5.346 4.162h-1.585c-0.792 0-1.385-0.595-1.385-1.385v-18.023c-0.002-0.792 0.593-1.387 1.385-1.387zM24.958 6.829h6.502c0.36 0 0.697 0.131 0.948 0.366l5.97 5.549c0.287 0.268 0.449 0.636 0.449 1.021v1.379h-13.867v-8.316h-0.002zM6.933 15.143c-0.765 0-1.387 0.62-1.387 1.385s0.622 1.387 1.387 1.387c0.765 0 1.387-0.62 1.387-1.385 0-0.768-0.622-1.387-1.387-1.387zM24.958 17.916h13.867l-0.002 6.933h-1.587c-0.626-2.377-2.785-4.16-5.35-4.16s-4.722 1.78-5.346 4.16h-1.585l0.002-6.933zM11.091 23.465c1.548 0 2.773 1.225 2.773 2.773s-1.225 2.773-2.773 2.773c-1.548 0-2.773-1.225-2.773-2.773-0.002-1.548 1.223-2.773 2.773-2.773zM31.888 23.465c1.548 0 2.773 1.225 2.773 2.773s-1.225 2.773-2.773 2.773c-1.548 0-2.773-1.225-2.773-2.773s1.225-2.773 2.773-2.773z"></path>
</svg>
