<!-- Generated by IcoMoon.io -->
<svg version="1.1" xmlns="http://www.w3.org/2000/svg" width="32" height="32" viewBox="0 0 32 32">
<title>eye</title>
<path d="M30.546 20.364c-0.804 0-1.454 0.651-1.454 1.454v5.216l-9.154-9.152c-0.569-0.569-1.49-0.569-2.057 0-0.569 0.567-0.569 1.488 0 2.057l9.152 9.154h-5.216c-0.804 0-1.454 0.651-1.454 1.454s0.651 1.454 1.454 1.454h8.727c0.805-0.002 1.456-0.654 1.456-1.456v-8.727c0-0.804-0.651-1.454-1.454-1.454z"></path>
<path d="M1.454 11.636c0.804 0 1.454-0.651 1.454-1.454v-5.214l9.154 9.152c0.284 0.284 0.656 0.427 1.029 0.427 0.372 0 0.745-0.142 1.028-0.427 0.569-0.567 0.569-1.488 0-2.057l-9.152-9.152h5.216c0.804 0 1.454-0.651 1.454-1.454-0.002-0.805-0.652-1.456-1.456-1.456h-8.727c-0.804 0-1.454 0.652-1.454 1.454v8.727c0 0.804 0.651 1.454 1.454 1.454z"></path>
<path d="M12.062 17.881l-9.154 9.152v-5.216c0-0.804-0.651-1.454-1.454-1.454-0.804 0.002-1.454 0.652-1.454 1.456v8.727c0 0.803 0.652 1.454 1.454 1.454h8.727c0.804 0 1.454-0.651 1.454-1.454s-0.651-1.454-1.454-1.454h-5.214l9.152-9.154c0.569-0.569 0.569-1.49 0-2.057-0.567-0.569-1.49-0.569-2.057 0z"></path>
<path d="M18.908 14.546c0.372 0 0.745-0.142 1.028-0.427l9.154-9.152v5.216c0 0.804 0.651 1.454 1.454 1.454 0.805-0.002 1.456-0.652 1.456-1.456v-8.727c0-0.804-0.652-1.454-1.454-1.454h-8.727c-0.804 0-1.454 0.651-1.454 1.454s0.651 1.454 1.454 1.454h5.216l-9.152 9.154c-0.569 0.569-0.569 1.49 0 2.057 0.283 0.284 0.654 0.427 1.026 0.427z"></path>
</svg>
