<svg height="32" viewBox="0 0 32 32" width="32" xmlns="http://www.w3.org/2000/svg"><path d="m28.572 10h-11.43v-1.714c-.002-1.578-1.28-2.856-2.858-2.858-.316 0-.572-.256-.572-.572v-1.714c.002-.63-.51-1.142-1.14-1.142-.632 0-1.144.512-1.144 1.142v1.714c.002 1.578 1.28 2.856 2.858 2.858.316 0 .572.256.572.572v1.714h-11.43c-1.892.002-3.426 1.536-3.428 3.428v11.428c.002 1.892 1.536 3.426 3.428 3.428h25.142c1.892-.002 3.426-1.536 3.428-3.428v-11.428c0-1.892-1.534-3.426-3.426-3.428zm1.142 14.858c0 .63-.512 1.142-1.142 1.142h-25.144c-.63 0-1.142-.512-1.142-1.142v-11.43c0-.63.512-1.142 1.142-1.142h25.142c.63 0 1.142.512 1.142 1.142v11.43z"/><path d="m10.286 18h-1.144v-1.142c0-.632-.512-1.142-1.142-1.142s-1.142.51-1.142 1.142v1.142h-1.144c-.63 0-1.142.512-1.142 1.142s.512 1.142 1.142 1.142h1.142v1.142c0 .632.512 1.142 1.142 1.142s1.142-.512 1.142-1.142v-1.14h1.142c.632 0 1.142-.512 1.142-1.142s-.508-1.144-1.138-1.144z"/><path d="m20.24 16.046c-.458-.422-1.164-.422-1.622 0-.442.45-.442 1.172 0 1.622.45.446 1.176.444 1.622-.006.444-.448.444-1.168 0-1.616z"/><path d="m25.052 16.422c-.058-.138-.14-.266-.24-.378-.278-.264-.664-.378-1.04-.308-.072.012-.14.036-.206.068-.074.024-.142.06-.206.102l-.17.138c-.1.112-.182.238-.24.378-.058.138-.09.284-.092.434-.008.626.494 1.138 1.12 1.144h.022c.624.006 1.136-.496 1.142-1.12 0-.008 0-.016 0-.022 0-.15-.032-.298-.09-.436z"/><path d="m22.526 20.618c-.058-.046-.114-.092-.182-.138-.058-.046-.124-.08-.194-.102-.068-.034-.142-.058-.218-.068-.372-.074-.758.042-1.028.308-.1.112-.182.238-.24.378-.064.136-.096.284-.092.434-.002.304.118.596.332.812.444.448 1.168.452 1.616.006.218-.216.34-.512.338-.818-.002-.15-.032-.296-.092-.434-.058-.14-.14-.268-.24-.378z"/><path d="m25.474 20.618c-.442.45-.442 1.172 0 1.622.218.21.508.33.812.332.632 0 1.146-.512 1.146-1.146 0-.632-.512-1.146-1.146-1.146-.304 0-.596.122-.812.338z"/></svg>