<!-- Generated by IcoMoon.io -->
<svg version="1.1" xmlns="http://www.w3.org/2000/svg" width="36" height="32" viewBox="0 0 36 32">
<title>heart-1</title>
<path d="M32.699 4.103c-3.867-3.866-10.158-3.866-14.024 0l-0.898 0.897-0.897-0.897c-3.866-3.866-10.157-3.866-14.023 0-3.787 3.787-3.812 9.791-0.057 13.965 3.425 3.806 13.525 12.028 13.954 12.376 0.291 0.236 0.641 0.352 0.989 0.352 0.012 0 0.023 0 0.034-0.001 0.36 0.017 0.723-0.107 1.023-0.351 0.428-0.348 10.53-8.57 13.956-12.376 3.754-4.174 3.73-10.177-0.057-13.964zM30.422 15.968c-2.67 2.966-10.010 9.084-12.645 11.256-2.635-2.171-9.973-8.288-12.643-11.255-2.619-2.911-2.644-7.058-0.057-9.645 1.321-1.321 3.056-1.982 4.792-1.982s3.47 0.66 4.792 1.982l1.974 1.974c0.235 0.235 0.531 0.375 0.842 0.424 0.504 0.108 1.052-0.032 1.444-0.424l1.975-1.974c2.643-2.642 6.942-2.641 9.584 0 2.587 2.587 2.563 6.733-0.056 9.644z"></path>
</svg>
