<svg height="32" viewBox="0 0 32 32" width="32" xmlns="http://www.w3.org/2000/svg"><path d="m25.745 9.291c-.255-.255-.618-.372-.974-.313-.353.059-.656.284-.816.604-.342.592-.759 1.137-1.242 1.622-.113-2.942-1.19-5.764-3.066-8.033-2.122-2.179-5.086-3.331-8.123-3.155-.412-.001-.791.227-.985.591-.183.356-.161.783.055 1.119.158.235 3.559 5.471-.324 10.181-.985-.772-2.104-1.992-2.104-2.943-.002-.514-.358-.961-.859-1.081-.502-.119-1.02.119-1.256.579-1.529 3.317-2.334 6.921-2.361 10.573 0 9.644 7.173 12.15 7.474 12.308.444.15.935.009 1.23-.356.295-.364.331-.875.09-1.278-1.061-1.905-1.481-4.103-1.198-6.265.689 1.337 1.715 2.471 2.976 3.289.492.326 1.155.214 1.51-.257 1.547-2.264 2.281-4.985 2.081-7.72 1.174 1.801 2.07 5.17.425 11.189-.086.334-.014.688.196.961s.534.434.878.437c.1.016.202.016.302 0 5.268-1.764 8.775-6.753 8.648-12.308.002-6.971-2.302-9.477-2.559-9.745z"/></svg>