<svg height="32" viewBox="0 0 21 32" width="21" xmlns="http://www.w3.org/2000/svg"><path d="m20.632 15.132v-6.631c0-1.723-1.315-2.686-2.551-2.717-.004 0-.007 0-.011 0-.01 0-.019 0-.027 0h-1.893l.086-.778h.427c.279 0 .505-.226.505-.505v-1.997c0-.279-.226-.505-.505-.505h-4.765v-1.492c0-.279-.226-.505-.505-.505h-4.527c-.279 0-.505.226-.505.505v1.492h-5.854c-.279 0-.505.226-.505.505v1.997c0 .279.226.505.505.505h.144l1.633 2.216.1.872 1.371 12.436v1.631c-.898.247-1.643.766-2.191 1.537-.688.968-1.051 2.313-1.051 3.891v1.403c-.279.001-.504.227-.504.505v1.997c0 .28.226.506.505.506h17.355c.279 0 .505-.226.505-.505v-1.997c0-.275-.219-.498-.493-.505v-1.404c0-1.557-.415-2.909-1.199-3.911-.571-.729-1.311-1.23-2.177-1.486v-1.551c.008-.027.014-.055.017-.085l.042-.384c.045.006.09.009.135.009.141 0 .283-.029.417-.09.959-.433 2.093-1.067 2.922-1.53.371-.207.692-.387.903-.495 1.375-.708 1.775-1.968 1.693-2.934zm-13.262-14.121h3.517v.987h-3.517zm-6.359 1.997h15.146v.987h-15.146zm.894 1.997h13.314l-.33 2.995h-2.053c-.279 0-.505.226-.505.505s.226.505.505.505h1.942l-1.211 10.985h-8.856l-1.211-10.985h7.584c.279 0 .505-.226.505-.505s-.226-.505-.505-.505h-7.695l-.002-.02-.115-1.008c-.01-.088-.043-.171-.095-.242l-1.271-1.725zm14.964 22.584v1.403h-10.951c-.279 0-.505.226-.505.505s.226.505.505.505h11.443v.987h-16.344v-.987h3.241c.279 0 .505-.226.505-.505s-.226-.505-.505-.505h-2.737v-1.403c0-1.379.343-4.584 3.519-4.584h8.044c2.794 0 3.785 2.469 3.785 4.584zm-12.106-5.595v-.987h8.73v.987zm11.054-13.192c.045.006.089.01.135.01h1.652l.003 6.38c-.001.029-.003.075-.001.133-.005.012-.019.031-.069.058-.345.184-.792.435-1.265.701-.459.257-.956.537-1.339.741zm2.658 8.368c-.715.369-2.435 1.395-3.777 2.002l.128-1.161c.569-.252 2.287-1.257 3.187-1.737.653-.349.605-.972.604-.979-.005-.028 0-.057 0-.085l-.003-6.709c0-.383-.149-.521-.262-.592-.139-.087-.293-.105-.323-.107h-2.077l.111-1.008h1.98.013c.629.016 1.566.484 1.566 1.707v6.679c.028.261.067 1.364-1.147 1.99z"/><path d="m9.129 24.561c-1.062 0-1.926.864-1.926 1.926s.864 1.925 1.926 1.925 1.925-.864 1.925-1.925-.864-1.926-1.925-1.926zm0 2.84c-.505 0-.915-.411-.915-.915s.411-.915.915-.915c.505 0 .915.411.915.915s-.41.915-.915.915z"/></svg>