<svg height="32" viewBox="0 0 32 32" width="32" xmlns="http://www.w3.org/2000/svg"><path d="m29.485 22.003v-16.149c0-.276-.224-.5-.5-.5h-25.969c-.276 0-.5.224-.5.5v16.149c0 .276.224.5.5.5h25.969c.277 0 .501-.224.501-.5zm-1-.5h-24.969v-15.149h24.969v15.149h.001zm-25.978 6.702h26.986c1.384-.001 2.505-1.123 2.507-2.507v-2.007c0-.276-.224-.5-.5-.5h-.588c.171-.298.261-.635.26-.979v-16.567c-.002-1.092-.887-1.978-1.98-1.979h-26.385c-1.093.001-1.978.887-1.979 1.979v16.567c0 .343.089.681.26.979h-.588c-.276 0-.5.224-.5.5v2.007c.001 1.384 1.123 2.505 2.507 2.507zm-.679-5.993v-16.567c.001-.54.439-.978.979-.979h26.385c.541.001.979.439.979.979v16.567c-.001.541-.439.978-.979.979h-26.385c-.541-.001-.979-.439-.979-.979zm10.883 1.979h6.577v.871h-6.577zm-11.711 0h10.711v.989c0 .487.395.881.882.882h6.813c.487-.001.881-.395.882-.882v-.989h10.711v1.507c-.001.832-.675 1.506-1.507 1.507h-26.985c-.832-.001-1.506-.675-1.507-1.507v-1.507z"/></svg>