<svg height="32" viewBox="0 0 32 32" width="32" xmlns="http://www.w3.org/2000/svg"><path d="m29.156 6.667h-22.044c-1.564 0-2.844 1.292-2.844 2.87v1.076c0 .395.32.717.711.717s.711-.323.711-.717v-1.076c0-.143.036-.287.071-.43l7.964 6.888-7.964 6.888c-.036-.143-.071-.287-.071-.43v-1.076c0-.395-.32-.717-.711-.717s-.711.323-.711.717v1.076c0 1.579 1.28 2.87 2.844 2.87h22.044c1.564 0 2.844-1.292 2.844-2.87v-12.916c0-1.579-1.28-2.87-2.844-2.87zm-22.329 1.471c.071-.036.178-.036.284-.036h22.044c.107 0 .213 0 .284.036l-10.844 9.364c-.284.215-.64.215-.924 0zm22.329 15.748h-22.044c-.107 0-.213 0-.284-.036l8-6.924 1.92 1.686c.391.359.889.538 1.387.538s.996-.18 1.387-.538l1.92-1.686 8 6.924c-.071.036-.178.036-.284.036zm1.422-1.434c0 .143-.036.287-.071.43l-7.964-6.888 7.964-6.888c.036.143.071.287.071.43zm-28.445-8.252c0-.395.32-.717.711-.717h4.267c.391 0 .711.323.711.717s-.32.717-.711.717h-4.267c-.391 0-.711-.323-.711-.717zm4.978 4.305h-6.4c-.391 0-.711-.323-.711-.717s.32-.717.711-.717h6.4c.391 0 .711.323.711.717s-.32.717-.711.717z"/></svg>