<svg height="32" viewBox="0 0 32 32" width="32" xmlns="http://www.w3.org/2000/svg"><path d="m13.728 27.636h2.91c.802 0 1.454-.652 1.454-1.454s-.652-1.454-1.454-1.454h-2.91c-.802 0-1.454.652-1.454 1.454s.65 1.454 1.454 1.454z"/><path d="m25.364 4.364c0-1.158-.46-2.268-1.278-3.086s-1.928-1.278-3.086-1.278c-3.23 0-8.408 0-11.636 0-1.158 0-2.268.46-3.086 1.278s-1.278 1.928-1.278 3.086v23.272c0 1.158.46 2.268 1.278 3.086s1.928 1.278 3.086 1.278h11.636c1.158 0 2.268-.46 3.086-1.278s1.278-1.928 1.278-3.086zm-2.91 0v23.272c0 .386-.152.756-.426 1.028-.272.274-.642.426-1.028.426-3.23 0-8.408 0-11.636 0-.386 0-.756-.152-1.028-.426-.274-.272-.426-.644-.426-1.028 0-5.574 0-17.698 0-23.272 0-.386.152-.756.426-1.028.272-.274.644-.426 1.028-.426h11.636c.386 0 .756.152 1.028.426.274.272.426.642.426 1.028z"/></svg>