<svg height="32" viewBox="0 0 32 32" width="32" xmlns="http://www.w3.org/2000/svg"><path d="m15.997 30.066c-.423 0-.848-.026-1.267-.08.092.012.178.022.27.036-.848-.11-1.671-.322-2.459-.638.082.032.161.064.243.096-.446-.18-.882-.394-1.292-.636-.203-.12-.402-.246-.595-.378-.048-.032-.094-.068-.145-.1-.023-.016-.048-.036-.071-.052-.094-.068.188.146.098.074-.098-.078-.197-.152-.293-.228-.362-.294-.7-.61-1.014-.952-.078-.084-.155-.17-.23-.258-.034-.038-.065-.078-.098-.116-.126-.146.155.196.01.01-.149-.188-.287-.38-.419-.578-.293-.438-.547-.9-.76-1.38.034.078.067.154.101.232-.331-.752-.553-1.542-.668-2.348.013.088.023.17.038.258-.077-.558-.084-1.116-.084-1.676 0-.658 0-1.316 0-1.974 0-1.544 0-3.09 0-4.634 0-.62 0-1.238.084-1.854-.01.09-.021.172-.034.26.113-.81.337-1.596.668-2.348-.034.078-.069.156-.103.232.191-.424.413-.84.666-1.234.126-.194.258-.384.396-.568.034-.046.071-.09.105-.138.017-.022.038-.046.054-.068.071-.09-.153.18-.078.094.082-.094.159-.188.239-.28.308-.346.639-.668.997-.968.088-.074.178-.148.27-.22.04-.032.08-.06.119-.094.153-.118-.205.15-.008.01.197-.142.398-.274.605-.4.459-.28.943-.522 1.445-.726-.084.034-.163.066-.245.098.788-.316 1.615-.528 2.459-.638-.092.012-.18.022-.27.034.84-.104 1.692-.104 2.532 0-.092-.012-.178-.022-.27-.034.848.11 1.671.322 2.459.638-.082-.032-.163-.064-.243-.096.446.18.882.394 1.292.636.203.12.402.246.595.378.048.032.094.068.145.1.023.016.048.036.071.052.094.068-.189-.146-.098-.074.098.078.197.152.293.228.362.294.7.61 1.014.952.078.084.155.17.23.258.034.038.065.078.098.116.126.146-.155-.196-.01-.01.149.188.287.38.419.578.293.438.547.9.76 1.38-.036-.08-.069-.158-.103-.236.331.752.553 1.542.668 2.348-.013-.088-.023-.17-.036-.258.078.558.084 1.116.084 1.676v1.974 4.634c0 .62 0 1.238-.084 1.854.012-.088.023-.17.038-.258-.115.81-.337 1.596-.668 2.348.033-.078.067-.154.1-.232-.188.426-.413.842-.666 1.234-.125.194-.258.384-.396.568-.034.046-.071.09-.105.138-.017.022-.038.046-.054.068-.071.09.153-.18.078-.094-.082.094-.159.188-.239.28-.308.346-.639.668-.997.968-.088.074-.178.148-.27.22-.04.032-.082.062-.121.094-.153.12.205-.148.01-.01-.197.142-.398.274-.605.4-.459.28-.943.522-1.445.726.082-.032.161-.064.243-.096-.788.316-1.615.528-2.459.638.092-.012.178-.022.27-.036-.417.054-.842.08-1.265.08-.53 0-1.037.444-1.014.968.025.522.448.966 1.014.966 1.709-.004 3.391-.404 4.907-1.152 1.479-.728 2.736-1.806 3.724-3.08.945-1.218 1.6-2.682 1.864-4.178.145-.822.17-1.638.17-2.466 0-.928 0-1.854 0-2.782 0-1.012 0-2.028 0-3.04 0-.574.017-1.154-.017-1.726-.094-1.616-.582-3.2-1.439-4.598-.834-1.362-2.002-2.522-3.376-3.396-1.416-.9-3.043-1.424-4.727-1.608-1.609-.178-3.297.026-4.809.58-1.548.568-2.962 1.444-4.091 2.608-1.133 1.17-1.986 2.582-2.451 4.114-.308 1.014-.419 2.062-.419 3.108v2.412 3.16 1.832c0 1.464.337 2.88.953 4.214.635 1.37 1.627 2.622 2.834 3.58 1.28 1.018 2.781 1.776 4.411 2.142.802.18 1.638.276 2.465.276.53 0 1.035-.444 1.012-.968-.021-.522-.444-.966-1.012-.966z"/><path d="m6.35 15.978h1.929 4.6 5.576 4.82c.779 0 1.56.012 2.34 0h.033c.53 0 1.037-.444 1.014-.968-.025-.526-.448-.966-1.016-.966-.641 0-1.286 0-1.929 0-1.533 0-3.066 0-4.6 0-1.858 0-3.718 0-5.576 0-1.607 0-3.215 0-4.819 0-.779 0-1.56-.012-2.34 0-.01 0-.023 0-.034 0-.53 0-1.037.444-1.014.968.027.52.446.966 1.016.966z"/><path d="m14.969.969v1.402 3.354 4.054 3.504c0 .568-.013 1.138 0 1.706v.026c0 .506.465.99 1.014.968.551-.022 1.014-.426 1.014-.968 0-.468 0-.936 0-1.402 0-1.118 0-2.234 0-3.354 0-1.352 0-2.702 0-4.054 0-1.168 0-2.334 0-3.504 0-.568.013-1.138 0-1.706 0-.01 0-.016 0-.026 0-.506-.465-.99-1.014-.968-.551.024-1.014.426-1.014.968z"/></svg>