<svg height="32" viewBox="0 0 32 32" width="32" xmlns="http://www.w3.org/2000/svg"><path d="m29.874 6.3h-1.251l.001-2.237c.001-1.502-1.22-2.724-2.722-2.725l-9.496-.006c-.001 0-.001 0-.001 0-.541 0-1.049.211-1.431.593l-14.176 14.176c-.514.515-.797 1.199-.797 1.926s.283 1.411.797 1.926l9.2 9.2c.531.531 1.229.797 1.926.797s1.395-.265 1.926-.797l8.926-8.926c.244-.244.244-.64 0-.884s-.64-.244-.884 0l-8.926 8.926c-.575.575-1.509.575-2.084 0l-9.2-9.2c-.278-.278-.431-.649-.431-1.042s.153-.764.431-1.042l14.176-14.176c.146-.146.341-.227.547-.227l9.496.005c.813 0 1.473.662 1.473 1.475l-.003 5.237h-2.815c-.243 0-.462-.099-.621-.259.261-.112.507-.274.72-.487.898-.899.898-2.36 0-3.258s-2.36-.899-3.258 0c-.898.898-.898 2.359 0 3.258.333.333.744.542 1.174.629.306.799 1.08 1.367 1.985 1.367h2.815l-.002 2.996c0 .207-.081.401-.227.547l-1.716 1.716c-.244.244-.244.64 0 .884s.639.244.884 0l1.716-1.716c.382-.382.593-.89.593-1.43l.002-2.997h1.254c1.171 0 2.125-.953 2.125-2.125-.001-1.171-.955-2.125-2.126-2.125zm-7.593-.12c.205-.205.475-.308.745-.308s.539.103.745.308c.065.065.119.137.163.213-.686.21-1.225.759-1.422 1.451-.083-.046-.161-.103-.231-.174-.412-.411-.412-1.079-.001-1.491zm7.593 3.12h-1.253l.001-1.75h1.252c.483 0 .875.393.875.875s-.393.875-.875.875z"/><path d="m10.088 17.102c.077.277.328.457.601.457.056 0 .112-.007.168-.023l6.416-1.786c.333-.093.527-.437.435-.77s-.437-.527-.77-.434l-6.416 1.785c-.332.093-.527.437-.434.77z"/><path d="m12.912 17.927c-.348.348-.54.811-.54 1.303s.191.955.54 1.303c.359.359.831.539 1.303.539s.944-.18 1.303-.539c.719-.719.719-1.888 0-2.606s-1.887-.719-2.606 0zm1.722 1.722c-.231.231-.607.231-.839 0-.112-.112-.173-.261-.173-.419s.062-.307.173-.419c.116-.115.267-.173.419-.173s.304.058.419.173c.231.231.231.607 0 .839z"/><path d="m15.828 14.205c.719-.719.719-1.888 0-2.606-.348-.348-.811-.54-1.303-.54s-.955.191-1.303.54c-.719.719-.719 1.887 0 2.606.359.359.831.539 1.303.539s.943-.179 1.303-.539zm-1.723-1.722c.112-.112.261-.173.419-.173s.307.061.419.173c.231.231.231.607 0 .839s-.607.231-.839 0c-.231-.231-.231-.607 0-.839z"/><path d="m6.216 15.81c-.244-.244-.64-.244-.884 0l-1.775 1.776c-.117.117-.183.276-.183.442s.066.325.183.442l7.925 7.925c.122.122.282.183.442.183s.32-.061.442-.183l11.849-11.85c.244-.244.244-.64 0-.884l-7.925-7.925c-.117-.117-.276-.183-.442-.183s-.325.066-.442.183l-6.538 6.538c-.244.244-.244.64 0 .884s.639.244.884 0l6.096-6.096 7.041 7.041-10.966 10.966-7.042-7.041 1.334-1.334c.244-.244.245-.639 0-.884z"/><path d="m24.1 17.393c-.165 0-.326.067-.442.183s-.183.277-.183.442.067.326.183.442.277.183.442.183c.164 0 .325-.067.442-.183s.183-.277.183-.442-.067-.326-.183-.442-.278-.183-.442-.183z"/><path d="m7.983 14.926c.117-.116.183-.277.183-.442 0-.164-.067-.325-.183-.442-.116-.116-.277-.183-.441-.183s-.326.067-.442.183c-.117.116-.183.277-.183.442s.067.326.183.442c.117.117.277.183.442.183s.325-.067.441-.183z"/></svg>