<svg height="32" viewBox="0 0 32 32" width="32" xmlns="http://www.w3.org/2000/svg"><path d="m12.777 19.25v-3.5c0-.345-.28-.625-.625-.625h-5.5c-.345 0-.625.28-.625.625v3.5c0 .345.28.625.625.625h5.5c.346 0 .625-.28.625-.625zm-1.25-.625h-4.25v-2.25h4.25z"/><path d="m12.5 22.5c0-.345-.28-.625-.625-.625h-5c-.345 0-.625.279-.625.625v2.75c0 .345.28.625.625.625h5c.345 0 .625-.279.625-.625zm-1.25 2.125h-3.75v-1.5h3.75z"/><path d="m14.625 25.875h5.499c.345 0 .625-.279.625-.625v-2.75c0-.345-.28-.625-.625-.625h-5.499c-.345 0-.625.279-.625.625v2.75c0 .345.279.625.625.625zm.625-2.75h4.249v1.5h-4.249z"/><path d="m22.249 22.5v2.75c0 .345.28.625.625.625h5.5c.345 0 .625-.279.625-.625v-2.75c0-.345-.28-.625-.625-.625h-5.5c-.345.001-.625.28-.625.625zm1.25.625h4.25v1.5h-4.25z"/><path d="m28.381 15.125h-5c-.345 0-.625.28-.625.625s.28.625.625.625h5c.345 0 .625-.28.625-.625s-.28-.625-.625-.625z"/><path d="m28.381 18.125h-2.432c-.345 0-.625.279-.625.625s.28.625.625.625h2.432c.345 0 .625-.28.625-.625s-.28-.625-.625-.625z"/><path d="m11.875 27.375h-5c-.345 0-.625.28-.625.625s.28.625.625.625h5c.345 0 .625-.279.625-.625s-.281-.625-.625-.625z"/><path d="m20.249 28c0-.345-.28-.625-.625-.625h-4.999c-.345.001-.625.28-.625.625s.279.625.625.625h4.999c.345 0 .625-.28.625-.625z"/><path d="m30.978 12.567.737-2.751c.216-.806.105-1.649-.312-2.371s-1.091-1.24-1.897-1.456l-21.947-5.881c-.807-.216-1.649-.105-2.371.312s-1.24 1.091-1.456 1.897l-3.623 13.523c-.446 1.665.545 3.381 2.209 3.827l.711.191v9.017c.001 1.723 1.402 3.125 3.125 3.125h8.549c.345 0 .625-.28.625-.625s-.279-.625-.625-.625h-8.549c-1.034 0-1.875-.841-1.875-1.875v-14c0-1.034.841-1.875 1.875-1.875h22.722c1.034 0 1.875.841 1.875 1.875v14c0 1.034-.841 1.875-1.875 1.875h-8.549c-.345 0-.625.28-.625.625s.28.625.625.625h8.549c1.723 0 3.125-1.402 3.125-3.125v-14c0-.913-.394-1.736-1.021-2.308zm-25.166-11.064c.433-.251.939-.317 1.423-.187l21.947 5.881c.484.129.888.44 1.139.874s.317.939.187 1.423l-.065.241-25.57-6.851.065-.241c.129-.484.44-.889.874-1.139zm-2.784 13.372v3.689l-.387-.104c-.484-.129-.889-.44-1.139-.874s-.317-.939-.187-1.423l2.322-8.667 15.875 4.253h-13.359c-1.723 0-3.125 1.403-3.125 3.125zm21.314-3.125-20.381-5.461.589-2.199 25.57 6.851-.26.969c-.31-.103-.641-.16-.985-.16l-4.532-.001z"/><path d="m17.513 30.75c-.165 0-.326.067-.442.183s-.183.277-.183.442.067.325.183.442.278.183.442.183.325-.067.442-.183c.116-.116.183-.277.183-.442s-.067-.325-.183-.442c-.116-.115-.277-.183-.442-.183z"/></svg>