<!-- Generated by IcoMoon.io -->
<svg version="1.1" xmlns="http://www.w3.org/2000/svg" width="32" height="32" viewBox="0 0 32 32">
<title>phone-2</title>
<path fill="#f02757" d="M18.215-0c-0.345 0-0.625 0.28-0.625 0.625s0.28 0.625 0.625 0.625c6.912 0 12.535 5.623 12.535 12.535 0 0.345 0.28 0.625 0.625 0.625s0.625-0.28 0.625-0.625c0-7.601-6.184-13.785-13.785-13.785z"></path>
<path fill="#f02757" d="M27.615 14.41c0.345 0 0.625-0.28 0.625-0.625 0-5.528-4.497-10.025-10.025-10.025-0.345 0-0.625 0.28-0.625 0.625s0.28 0.625 0.625 0.625c4.839 0 8.775 3.937 8.775 8.775-0.001 0.345 0.279 0.625 0.625 0.625z"></path>
<path fill="#f02757" d="M23.23 13.785c0 0.345 0.28 0.625 0.625 0.625s0.625-0.28 0.625-0.625c0-3.454-2.81-6.265-6.265-6.265-0.345 0-0.625 0.28-0.625 0.625s0.28 0.625 0.625 0.625c2.764-0.001 5.014 2.249 5.014 5.015z"></path>
<path fill="#f02757" d="M17.59 11.905c0 0.345 0.28 0.625 0.625 0.625 0.692 0 1.255 0.563 1.255 1.255 0 0.345 0.28 0.625 0.625 0.625s0.625-0.28 0.625-0.625c0-1.381-1.124-2.505-2.505-2.505-0.346-0.001-0.626 0.279-0.626 0.625z"></path>
<path fill="#fff" d="M11.714 20.292c0 0.345-0.28 0.625-0.625 0.625s-0.625-0.28-0.625-0.625c0-0.345 0.28-0.625 0.625-0.625s0.625 0.279 0.625 0.625z"></path>
<path fill="#fff" d="M17.127 31.241c2.846 1.395 6.27 0.815 8.52-1.436l1.292-1.292c0.702-0.701 0.702-1.837 0-2.538l-4.993-4.993c-0.701-0.701-1.836-0.703-2.537 0l-2.121 2.122c-0.415 0.415-1.057 0.5-1.525 0.202-0.763-0.487-1.505-1.025-2.205-1.598-0.267-0.219-0.661-0.179-0.879 0.088s-0.179 0.661 0.088 0.879c0.738 0.603 1.519 1.17 2.323 1.683 0.958 0.612 2.254 0.456 3.081-0.371l2.122-2.122c0.212-0.213 0.556-0.213 0.769 0l4.993 4.993c0.213 0.213 0.213 0.557 0 0.77l-1.293 1.293c-1.875 1.875-4.723 2.356-7.087 1.197-8.661-4.247-13.372-10.981-15.8-15.882-1.161-2.344-0.679-5.181 1.2-7.059l1.265-1.264c0.212-0.213 0.556-0.213 0.769 0l4.994 4.994c0.211 0.211 0.213 0.555-0.001 0.769l-2.121 2.122c-0.827 0.827-0.983 2.123-0.371 3.081 0.361 0.564 0.749 1.121 1.155 1.654 0.209 0.275 0.601 0.327 0.876 0.119s0.328-0.601 0.119-0.876c-0.385-0.506-0.755-1.035-1.097-1.57-0.299-0.468-0.214-1.109 0.202-1.525l2.121-2.121c0.701-0.701 0.702-1.837 0.001-2.537l-4.993-4.993c-0.7-0.701-1.836-0.703-2.537 0l-1.264 1.263c-2.259 2.258-2.836 5.673-1.436 8.498 2.513 5.075 7.394 12.049 16.37 16.45z"></path>
</svg>
