<svg height="32" viewBox="0 0 20 32" width="20" xmlns="http://www.w3.org/2000/svg"><path d="m2.399 30.659.63 1.091c.089.155.254.25.433.25h1.881c.179 0 .344-.095.433-.25l.63-1.091h6.577l.63 1.091c.09.155.255.25.433.25h1.881c.179 0 .344-.095.433-.25l.63-1.091h.411c1.097-.001 1.986-.891 1.987-1.988v-26.683c-.001-1.097-.89-1.987-1.987-1.988h-15.413c-1.097.001-1.987.891-1.988 1.988v26.683c.001 1.097.891 1.987 1.988 1.988h.411zm2.655.341h-1.304l-.197-.341h1.698zm10.585 0h-1.304l-.197-.341h1.698zm-14.639-21.672h17.389v1.151h-17.389zm.988-8.328h15.413c.545.001.987.443.987.988v6.34h-17.389v-6.34c.001-.545.443-.987.988-.988zm-.988 27.671v-17.192h17.389v17.192c-.001.545-.443.987-.987.988h-15.414c-.545-.001-.987-.443-.988-.988zm.677-22.99v-2.035c0-.179.095-.344.25-.433l.881-.509c.239-.139.545-.057.683.183s.057.545-.183.683l-.631.364v1.457l.631.365c.116.066.201.175.235.303s.017.265-.049.381c-.067.115-.177.199-.305.233s-.266.015-.381-.052l-.881-.509c-.155-.089-.25-.254-.25-.433zm1.132 11.164-.881-.509c-.155-.089-.25-.255-.25-.433v-2.035c0-.179.095-.344.25-.433l.881-.509c.239-.138.545-.056.683.183s.056.545-.183.683l-.631.364v1.457l.631.364c.116.066.201.175.235.304s.017.265-.049.381c-.067.115-.177.199-.305.233-.129.033-.266.015-.381-.053z"/></svg>