<!-- Generated by IcoMoon.io -->
<svg version="1.1" xmlns="http://www.w3.org/2000/svg" width="32" height="32" viewBox="0 0 32 32">
<title>return</title>
<path d="M31.896 8.186l-2.91-7.272c-0.22-0.552-0.754-0.914-1.35-0.914h-23.272c-0.596 0-1.13 0.362-1.352 0.914l-2.908 7.272c-0.068 0.172-0.104 0.356-0.104 0.542v21.818c0 0.802 0.652 1.454 1.454 1.454h29.090c0.804 0 1.456-0.652 1.456-1.454v-21.818c0-0.186-0.036-0.37-0.104-0.542zM5.348 2.91h21.304l1.746 4.364h-24.794l1.744-4.364zM2.91 29.090v-18.908h26.182v18.91l-26.182-0.002z"></path>
<path d="M17.028 13.518c-0.568-0.568-1.488-0.568-2.056 0l-4.364 4.362c-0.552 0.572-0.544 1.478 0.018 2.040s1.468 0.568 2.038 0.018l1.88-1.88v6.67c0 0.804 0.652 1.454 1.454 1.454 0.804 0 1.454-0.652 1.454-1.454v-6.672l1.88 1.88c0.57 0.552 1.478 0.544 2.040-0.018s0.568-1.468 0.018-2.038l-4.362-4.362z"></path>
</svg>
