<svg height="32" viewBox="0 0 32 32" width="32" xmlns="http://www.w3.org/2000/svg"><path d="m28.621 26.285h-.365c4.826-5.75 5.005-14.082.431-20.034s-12.671-7.924-19.469-4.741c-6.799 3.183-10.471 10.664-8.828 17.989s8.156 12.524 15.662 12.5c1.244-.002 2.483-.151 3.692-.445.315-.049.595-.228.773-.492s.237-.591.164-.901-.273-.575-.55-.732-.608-.189-.912-.092c-6.628 1.619-13.447-1.84-16.057-8.145s-.231-13.57 5.603-17.109 13.377-2.295 17.764 2.932 4.306 12.872-.192 18.004v-1.017c0-.631-.511-1.143-1.143-1.143s-1.143.511-1.143 1.143v3.428c0 .631.511 1.143 1.143 1.143h3.428c.631 0 1.143-.511 1.143-1.143s-.511-1.143-1.143-1.143z"/><path d="m24.051 10.286c0-1.262-1.023-2.285-2.285-2.285h-11.428c-1.262 0-2.285 1.023-2.285 2.285v11.428c0 1.262 1.023 2.285 2.285 2.285h11.428c1.262 0 2.285-1.023 2.285-2.285zm-6.857 0v2.72l-.628-.308c-.324-.163-.705-.163-1.028 0l-.628.308v-2.72h2.285zm-6.857 11.429v-11.428h2.285v4.572c.001.396.208.764.545.971s.758.225 1.112.046l1.772-.88 1.772.88c.159.082.335.124.514.125.214.001.424-.059.605-.172.335-.209.538-.577.537-.972v-4.572h2.285v11.428l-11.427.001z"/></svg>