<!-- Generated by IcoMoon.io -->
<svg version="1.1" xmlns="http://www.w3.org/2000/svg" width="24" height="32" viewBox="0 0 24 32">
<title>secure</title>
<path d="M12 16c-1.946-0.003-3.611 1.397-3.941 3.315s0.771 3.794 2.606 4.44v1.579c0 0.736 0.597 1.333 1.333 1.333s1.333-0.597 1.333-1.333v-1.579c1.835-0.646 2.938-2.523 2.606-4.44-0.326-1.918-1.992-3.318-3.938-3.315zM12 21.333c-0.539 0-1.026-0.325-1.232-0.824-0.206-0.498-0.093-1.072 0.29-1.453 0.381-0.381 0.955-0.496 1.453-0.29 0.499 0.206 0.824 0.693 0.824 1.232-0.002 0.738-0.598 1.334-1.334 1.334z"></path>
<path d="M12 0c-4.416 0.005-7.995 3.584-8 8v2.667c-2.21 0-4 1.79-4 4v13.333c0 2.21 1.79 4 4 4h16c2.21 0 4-1.79 4-4v-13.333c0-2.21-1.79-4-4-4v-2.667c-0.005-4.416-3.584-7.995-8-8zM21.333 14.667v13.333c0 0.736-0.597 1.333-1.333 1.333h-16c-0.736 0-1.333-0.597-1.333-1.333v-13.333c0-0.736 0.597-1.333 1.333-1.333h16c0.736-0.002 1.333 0.595 1.333 1.333zM6.667 10.667v-2.667c0-2.946 2.387-5.333 5.333-5.333s5.333 2.387 5.333 5.333v2.667h-10.666z"></path>
</svg>
