<!-- Generated by IcoMoon.io -->
<svg version="1.1" xmlns="http://www.w3.org/2000/svg" width="28" height="32" viewBox="0 0 28 32">
<title>support-phone</title>
<path d="M3.2 25.593c-1.767 0-3.2-1.432-3.2-3.199v-6.399c0-0.591 0.479-1.070 1.070-1.070h2.13c0.849 0 1.663 0.337 2.262 0.936s0.936 1.414 0.936 2.262v4.269c0 0.849-0.337 1.663-0.936 2.262-0.6 0.601-1.414 0.938-2.262 0.938zM2.13 17.056v5.338c0.053 0.548 0.513 0.966 1.064 0.966s1.011-0.419 1.064-0.966v-4.269c0-0.284-0.113-0.555-0.313-0.757-0.2-0.2-0.473-0.313-0.757-0.313h-1.059z"></path>
<path d="M1.241 12.786h-0.171c-0.582-0.096-0.975-0.647-0.879-1.229 0.864-5.116 4.512-9.32 9.454-10.899 4.942-1.578 10.351-0.267 14.020 3.4 2.038 2.030 3.388 4.65 3.859 7.488 0.079 0.292 0.032 0.604-0.131 0.858-0.164 0.256-0.427 0.43-0.726 0.479-0.299 0.050-0.604-0.029-0.84-0.217s-0.384-0.467-0.402-0.769c-0.956-5.64-5.842-9.767-11.562-9.767-5.721 0-10.606 4.127-11.562 9.767-0.089 0.516-0.537 0.892-1.060 0.889z"></path>
<path d="M9.468 6.398c-0.479-0.017-0.886-0.351-1-0.815s0.095-0.949 0.511-1.184c3.071-1.553 6.696-1.553 9.767 0 0.263 0.125 0.463 0.353 0.554 0.629 0.092 0.277 0.065 0.579-0.071 0.836s-0.371 0.448-0.651 0.529c-0.28 0.081-0.58 0.043-0.832-0.104-2.451-1.256-5.357-1.256-7.808 0-0.145 0.072-0.306 0.11-0.469 0.11z"></path>
<path d="M26.674 14.925h-2.14c-1.767 0-3.199 1.432-3.199 3.199v4.269c0 0.849 0.337 1.663 0.936 2.262s1.414 0.936 2.262 0.936c0.313-0.004 0.622-0.054 0.92-0.15-0.398 1.354-1.638 2.285-3.048 2.29h-5.539c-0.519-1.469-2.022-2.351-3.558-2.088s-2.659 1.594-2.659 3.153c0 1.558 1.123 2.89 2.659 3.153s3.039-0.619 3.558-2.088h5.539c2.941-0.006 5.323-2.387 5.329-5.329v-8.538c0-0.584-0.473-1.062-1.060-1.067zM13.867 29.863c-0.433 0-0.822-0.26-0.988-0.661-0.166-0.399-0.074-0.86 0.232-1.166s0.767-0.398 1.166-0.232c0.399 0.166 0.661 0.555 0.661 0.988 0 0.284-0.113 0.555-0.313 0.757-0.202 0.2-0.474 0.314-0.758 0.314zM25.604 22.394c-0.053 0.548-0.513 0.966-1.064 0.966s-1.011-0.419-1.064-0.966v-4.269c0-0.591 0.479-1.070 1.070-1.070h1.070l-0.011 5.338z"></path>
</svg>
