<svg height="32" viewBox="0 0 32 32" width="32" xmlns="http://www.w3.org/2000/svg"><path d="m16.54 12.108c1.074-.001 1.945-.872 1.946-1.946v-1.946c-.002-1.074-.872-1.945-1.946-1.946h-2.919c-.537 0-.973.436-.973.973s.436.973.973.973h2.919v1.946h-1.946c-1.074.002-1.945.872-1.946 1.946v1.946c.001 1.074.872 1.945 1.946 1.946h2.919c.537 0 .973-.436.973-.973s-.436-.973-.973-.973h-2.919v-1.946z"/><path d="m25.297 16c.537 0 .973-.436.973-.973v-5.838c0-.537-.435-.973-.973-.973s-.973.436-.973.973v.973h-1.946v-2.919c0-.537-.436-.973-.973-.973s-.973.436-.973.973v2.919c.001 1.074.872 1.945 1.946 1.946h1.946v2.919c0 .537.436.973.973.973z"/><path d="m18.973.432c-4.395.001-8.447 2.377-10.595 6.211l-3.628-3.628c-.291-.286-.69-.436-1.098-.413s-.787.218-1.043.536c-3.295 3.815-3.489 9.411-.464 13.443 2.45 3.203 5.319 6.064 8.527 8.507 1.843 1.398 4.094 2.152 6.409 2.145 1.244-.001 2.478-.215 3.649-.635.463.604.923 1.253.549 2.039-.236.603-.823.995-1.47.983h-6.673c-.537 0-.973.436-.973.973s.436.974.973.974h6.673c1.373.002 2.621-.792 3.203-2.035s.389-2.71-.491-3.762c.571-.331 1.11-.715 1.61-1.146.313-.253.505-.626.528-1.028s-.125-.795-.408-1.081l-4.01-4.01c-.474-.468-1.118-.722-1.784-.705s-1.296.305-1.744.798l-1.095 1.217c-3.74-1.48-6.701-4.442-8.181-8.182l1.217-1.095c.515-.461.807-1.122.799-1.814 1.688-3.723 5.358-6.412 9.522-6.347 4.305-.001 8.149 2.698 9.61 6.749s.226 8.581-3.088 11.33c-.2.164-.326.401-.35.658s.055.514.219.713.402.324.659.349.514-.055.713-.221c3.947-3.271 5.419-8.666 3.68-13.488-1.74-4.821-6.316-8.035-11.442-8.034zm-11.623 8.66-1.718 1.546c-.296.266-.4.687-.262 1.06 1.662 4.77 5.411 8.518 10.18 10.18.374.138.794.035 1.06-.262l1.546-1.718c.087-.104.213-.166.349-.169s.265.052.357.151l3.595 3.595c-3.122 2.394-7.456 2.421-10.608.065-3.07-2.339-5.815-5.076-8.161-8.141-2.358-3.152-2.326-7.492.083-10.609l3.597 3.596c.1.091.156.221.152.357s-.067.263-.171.349z"/><path d="m10.215 30.595c0 .537-.436.973-.973.973s-.973-.436-.973-.973.436-.973.973-.973.973.436.973.973z"/></svg>