<!-- Generated by IcoMoon.io -->
<svg version="1.1" xmlns="http://www.w3.org/2000/svg" width="28" height="32" viewBox="0 0 28 32">
<title>tablet-1</title>
<path d="M3.974 32h19.588c2.192-0.008 3.966-1.782 3.974-3.974v-24.052c-0.010-2.192-1.784-3.966-3.974-3.974h-19.588c-2.192 0.008-3.966 1.782-3.974 3.974v24.052c0.008 2.192 1.782 3.966 3.974 3.974zM2.232 3.974c0-0.962 0.78-1.742 1.742-1.742h19.588c0.462 0 0.904 0.184 1.232 0.51 0.326 0.326 0.51 0.77 0.51 1.232v24.052c0 0.962-0.78 1.742-1.742 1.742h-19.588c-0.462 0-0.904-0.184-1.232-0.51-0.326-0.326-0.51-0.77-0.51-1.232v-24.052z"></path>
<path d="M15.002 26.538c0 0.682-0.554 1.236-1.236 1.236s-1.236-0.554-1.236-1.236c0-0.682 0.554-1.236 1.236-1.236 0.684 0 1.236 0.554 1.236 1.236z"></path>
</svg>
