<svg height="32" viewBox="0 0 23 32" width="23" xmlns="http://www.w3.org/2000/svg"><path d="m2.063 32h18.937c1.139-.001 2.061-.924 2.063-2.063v-27.875c-.001-1.139-.924-2.061-2.063-2.063h-18.937c-1.139.001-2.061.924-2.063 2.063v27.875c.001 1.139.924 2.061 2.063 2.063zm-1.063-29.937c.001-.587.476-1.062 1.063-1.063h18.937c.587.001 1.062.476 1.063 1.063v27.875c-.001.587-.476 1.062-1.063 1.063h-18.937c-.587-.001-1.062-.476-1.063-1.063v-27.875zm10.531 27.984c.581 0 1.105-.35 1.328-.887s.099-1.155-.311-1.567c-.411-.411-1.029-.534-1.567-.311s-.887.747-.887 1.328c.001.793.643 1.437 1.437 1.437zm0-1.875c.389 0 .585.471.309.747s-.747.081-.747-.309c0-.242.196-.438.437-.438zm-.5-25.719c0-.132.052-.259.145-.353s.221-.147.353-.147h.003c.202.001.384.123.461.31s.034.402-.109.545-.358.185-.545.107-.308-.26-.308-.462z"/></svg>