<svg height="32" viewBox="0 0 32 32" width="32" xmlns="http://www.w3.org/2000/svg"><path d="m2.063 25.401h1.964l-1.272 2.583c-.269.549-.067 1.213.463 1.518s1.205.149 1.546-.359l2.459-3.677c.014-.021.026-.042.036-.065h17.484c.011.023.023.045.036.065l2.459 3.677c.341.507 1.017.665 1.547.359s.732-.969.463-1.519l-1.273-2.583h1.964c1.139-.001 2.061-.924 2.063-2.063v-18.937c-.001-1.139-.924-2.061-2.063-2.063h-27.875c-1.139.002-2.061.925-2.063 2.063v18.937c.001 1.139.924 2.062 2.063 2.063zm1.868 3.187c-.113.164-.365.018-.281-.162l1.486-3.016c.001-.003.002-.005.003-.008h.922l-2.131 3.186zm22.932-3.178 1.486 3.016c.085.181-.167.326-.281.162l-2.131-3.187h.922c.001.003.002.006.003.009zm3.074-1.009h-27.875c-.587-.001-1.062-.476-1.063-1.063v-.469h30v.469c-.001.587-.476 1.062-1.063 1.063zm-27.874-21.062h27.875c.587.001 1.062.476 1.063 1.063v17.469h-30v-17.469c0-.587.475-1.062 1.062-1.063zm14.438 20.297c0 .203-.121.385-.308.463s-.402.035-.545-.107c-.143-.143-.187-.358-.11-.545s.259-.31.461-.311h.003c.275 0 .499.224.499.5z"/></svg>