<svg height="32" viewBox="0 0 32 32" width="32" xmlns="http://www.w3.org/2000/svg"><path d="m15.878 32c-.045 0-.09-.005-.134-.015-4.07-.893-7.749-3.174-10.361-6.421s-4.05-7.329-4.05-11.497v-8.181c0-.303.218-.563.517-.615l.127-.022c4.831-.848 9.397-2.583 13.572-5.157.201-.124.454-.124.655-.001 4.205 2.579 8.799 4.319 13.658 5.171l.043.007c.299.052.517.312.517.615v8.173c0 4.168-1.438 8.252-4.049 11.5s-6.291 5.531-10.361 6.426c-.044.011-.089.015-.134.015zm-13.295-25.59v7.658c0 7.921 5.583 14.908 13.294 16.666 7.712-1.763 13.294-8.753 13.294-16.675v-7.65c-4.714-.884-9.182-2.582-13.294-5.052-4.108 2.479-8.577 4.178-13.295 5.053z"/><path d="m15.877 29.089c-.277 0-.529-.185-.603-.465-.089-.333.11-.676.444-.765l.024-.006c.333-.089.676.11.765.444s-.11.676-.444.765l-.024.006c-.054.014-.108.021-.161.021zm2.363-.848c-.237 0-.463-.135-.569-.364-.144-.314-.007-.685.307-.829 5.081-2.333 8.364-7.432 8.364-12.989v-5.857c0-.345.28-.625.625-.625s.625.28.625.625v5.857c0 2.983-.87 5.898-2.515 8.428-1.623 2.496-3.897 4.466-6.577 5.696-.085.039-.174.057-.261.057zm-13.323-11.608c-.308 0-.577-.228-.619-.542-.09-.671-.135-1.355-.135-2.032v-5.857c0-.291.201-.543.485-.609 2.92-.674 5.768-1.668 8.465-2.954.311-.149.685-.017.833.295s.017.685-.295.833c-2.629 1.254-5.399 2.239-8.237 2.929v5.363c0 .622.042 1.249.125 1.866.046.342-.194.657-.537.703-.029.004-.057.005-.085.005zm10.947-12.091c-.217 0-.429-.113-.544-.316-.171-.3-.066-.681.234-.852l.014-.008c.301-.169.684-.063.853.239s.064.68-.237.849l-.005.003-.007.003c-.097.055-.203.081-.308.081z"/><path d="m14.205 24.628c-.507 0-1.004-.231-1.324-.652l-.543-.715c-.073-.096-.183-.154-.303-.16l-.891-.044c-.781-.039-1.419-.605-1.551-1.376l-.153-.899c-.02-.117-.091-.22-.193-.281l-.778-.462c-.669-.397-.969-1.191-.731-1.931l.281-.874c.036-.113.021-.236-.041-.337l-.48-.78c-.407-.661-.305-1.503.248-2.048l.649-.64c.085-.083.129-.199.12-.318l-.065-.914c-.055-.778.427-1.478 1.174-1.703l.86-.259c.115-.035.208-.117.255-.227l.36-.831c.307-.709 1.081-1.115 1.839-.966l.873.171c.118.023.24-.007.333-.083l.695-.561c.603-.487 1.478-.487 2.081 0l.695.561c.094.076.215.106.333.083l.873-.171c.758-.149 1.531.258 1.839.967l.36.831c.048.11.141.193.255.227l.86.259c.747.225 1.229.925 1.174 1.703l-.065.914c-.009.119.035.235.12.318l.649.64c.553.545.655 1.387.248 2.048l-.48.781c-.062.101-.077.224-.041.337l.281.873c.238.74-.063 1.534-.731 1.931l-.778.462c-.103.061-.173.163-.193.281l-.153.899c-.131.771-.769 1.337-1.551 1.376l-.892.044c-.12.006-.231.064-.303.16l-.543.715c-.469.617-1.318.826-2.019.499l-.806-.376c-.109-.051-.235-.051-.344 0l-.806.376c-.221.103-.458.153-.693.153zm-1.586-15.199c-.159 0-.309.095-.374.245l-.36.831c-.194.448-.574.786-1.041.927l-.86.259c-.183.055-.301.227-.288.418l.065.914c.035.484-.144.957-.49 1.297l-.649.64c-.135.133-.161.34-.061.502l.48.781c.254.413.315.914.166 1.375l-.281.874c-.059.181.015.376.179.474l.778.462c.419.249.705.666.787 1.146l.153.899c.032.189.189.328.38.337l.891.044c.489.024.94.262 1.237.652l.543.715c.115.151.323.203.495.122l.806-.376c.445-.208.956-.208 1.401 0l.806.376c.172.081.381.029.495-.122l.543-.715c.297-.39.747-.628 1.237-.652l.892-.044c.191-.009.348-.148.38-.337l.153-.899c.082-.48.369-.897.787-1.146l.778-.462c.164-.097.238-.292.179-.474l-.281-.874c-.148-.461-.088-.963.166-1.375l.48-.781c.1-.162.075-.369-.061-.502l-.649-.64c-.346-.341-.524-.813-.49-1.297l.065-.914c.013-.191-.105-.363-.288-.418l-.86-.259c-.467-.141-.847-.479-1.041-.927l-.36-.831c-.075-.174-.265-.273-.451-.237l-.873.171c-.482.095-.977-.028-1.359-.337l-.694-.56c-.148-.119-.363-.119-.511 0l-.695.561c-.382.309-.877.431-1.359.337l-.873-.171c-.025-.005-.051-.007-.077-.007z"/><path d="m13.837 19.926c-.104 0-.209-.026-.307-.081-.301-.17-.407-.551-.237-.851l3.361-5.953c.17-.301.551-.407.851-.237s.407.551.237.851l-3.361 5.953c-.114.204-.326.318-.544.318z"/><path d="m18.062 20.283c-1.034 0-1.875-.841-1.875-1.875s.841-1.875 1.875-1.875 1.875.841 1.875 1.875-.841 1.875-1.875 1.875zm0-2.499c-.345 0-.625.281-.625.625s.281.625.625.625.625-.281.625-.625c-.001-.345-.281-.625-.625-.625z"/><path d="m13.694 15.467c-1.034 0-1.875-.841-1.875-1.875s.841-1.875 1.875-1.875 1.875.841 1.875 1.875-.841 1.875-1.875 1.875zm0-2.5c-.345 0-.625.281-.625.625s.281.625.625.625c.345 0 .625-.281.625-.625s-.281-.625-.625-.625z"/></svg>