<svg height="32" viewBox="0 0 27 32" width="27" xmlns="http://www.w3.org/2000/svg"><path d="m0 2.557v25.032c.002 1.411 1.145 2.555 2.557 2.557l.679.001.926 1.604c.089.155.253.25.432.25h2.6c.179 0 .344-.095.433-.25l.927-1.605h9.313l.927 1.605c.089.155.254.25.433.25h2.6c.179 0 .344-.095.433-.25l.927-1.605h.677c1.411-.001 2.555-1.145 2.557-2.557v-25.032c-.001-1.411-1.145-2.555-2.556-2.557h-21.305c-1.411.001-2.555 1.145-2.557 2.557zm2.557-1.557h5.916v4.674h-7.473v-3.117c.001-.859.697-1.556 1.557-1.557zm22.862 26.089h-24.419v-20.415h24.419zm-15.946-21.415v-4.674h7.473v4.674zm-2.568 25.326h-2.023l-.493-.855h3.009zm14.631 0h-2.023l-.493-.855h3.01zm2.326-1.855h-21.305c-.667-.001-1.259-.425-1.474-1.057h24.253c-.215.631-.807 1.056-1.474 1.057zm1.557-26.588v3.117h-7.473v-4.674h5.916c.859.001 1.555.697 1.557 1.557zm-14.014-.47c-.505 0-.961.305-1.155.772s-.087 1.005.271 1.362c.357.358.895.465 1.362.271s.771-.649.771-1.155c-.001-.691-.56-1.249-1.25-1.251zm0 1.5c-.223 0-.334-.269-.177-.427s.427-.046.427.177c0 .138-.112.25-.25.25zm3.609-1.5c-.505 0-.961.305-1.155.772s-.087 1.005.271 1.362c.357.358.895.465 1.362.271s.771-.649.771-1.155c-.001-.691-.56-1.249-1.25-1.251zm0 1.5c-.223 0-.334-.269-.177-.427s.427-.046.427.177c0 .138-.112.25-.25.25zm-2.22 21.052c3.084 0 5.864-1.858 7.045-4.707s.527-6.129-1.653-8.309-5.46-2.833-8.309-1.653-4.707 3.961-4.707 7.045c.004 4.208 3.415 7.619 7.625 7.624zm0-14.25c2.679 0 5.095 1.614 6.121 4.09s.459 5.325-1.436 7.22-4.744 2.461-7.22 1.436-4.09-3.441-4.09-6.121c.004-3.657 2.968-6.621 6.625-6.625zm0 12.145c1.741.007 3.381-.814 4.419-2.212.065-.087.1-.192.1-.3v-6.017c0-.109-.035-.213-.1-.3-1.147-1.532-3.005-2.361-4.911-2.191s-3.588 1.317-4.445 3.028-.766 3.744.239 5.373 2.783 2.619 4.697 2.619zm0-10.041c1.369-.005 2.665.614 3.519 1.683v5.675c-.975 1.209-2.501 1.833-4.043 1.653s-2.884-1.139-3.554-2.539c-.67-1.401-.575-3.047.253-4.361s2.271-2.11 3.825-2.11zm-10.057-9.156c0-.276.224-.5.5-.5h3c.277 0 .5.224.5.5s-.223.5-.5.5h-3c-.276 0-.5-.224-.5-.5zm16.945 0c0-.276.223-.5.5-.5h3c.276 0 .5.224.5.5s-.224.5-.5.5h-3c-.276 0-.5-.224-.5-.5zm-1.962 14.403v-1.453c0-.276.224-.5.5-.5s.5.224.5.5v1.453c0 .276-.224.5-.5.5s-.5-.224-.5-.5z"/></svg>