<svg height="32" viewBox="0 0 62 32" width="62" xmlns="http://www.w3.org/2000/svg"><path d="m2.695 23.018c-.493 0-.744-.282-.744-.846v-2.33l.44.031c1.049.042 1.573.554 1.573 1.547 0 1.139-.398 1.599-1.195 1.599h-.073zm-.388-6.395c.891 0 1.353.376 1.353 1.494 0 .888-.44 1.369-1.311 1.442l-.398.031v-2.968h.356zm-2.307-.324v.136c.294.178.44.543.44 1.097v4.504c0 .616-.147 1.003-.44 1.17v.136h2.779c1.898 0 2.842-.648 2.842-1.944 0-.512-.199-.909-.608-1.191s-.902-.439-1.499-.481c.514-.052.933-.23 1.279-.512s.524-.679.524-1.17c0-1.087-.912-1.745-2.412-1.745h-2.905z"/><path d="m14.329 23.133c-1.279.01-2.003-1.546-1.971-3.344 0-1.745.629-3.281 1.971-3.281.629 0 1.111.314 1.457.951.346.627.524 1.4.524 2.33 0 1.818-.619 3.344-1.982 3.344zm0 .324c1.101 0 1.982-.334 2.642-1.003.671-.679 1.007-1.567 1.007-2.665 0-1.055-.336-1.912-.996-2.591s-1.552-1.014-2.653-1.014c-1.08 0-1.961.345-2.632 1.024-.661.679-.996 1.546-.996 2.581 0 1.149.325 2.048.965 2.696s1.531.972 2.663.972z"/><path d="m26.086 23.028c-.514 0-.786-.261-.786-.93v-5.475h.535c.828 0 1.457.303 1.877.899.43.596.64 1.369.64 2.341 0 .93-.199 1.693-.587 2.288-.388.585-.923.878-1.615.878h-.063zm-2.737-6.729v.136c.294.178.44.564.44 1.17v4.431c0 .606-.147.993-.44 1.17v.136h2.548c1.332 0 2.349-.324 3.041-.961.692-.648 1.038-1.505 1.038-2.581 0-2.215-1.363-3.5-4.037-3.5h-2.59z"/><path d="m38.743 23.133c-1.279.01-2.003-1.546-1.971-3.344 0-1.745.629-3.281 1.971-3.281.629 0 1.112.314 1.457.951.346.627.525 1.4.525 2.33 0 1.818-.619 3.344-1.982 3.344zm0 .324c1.101 0 1.982-.334 2.642-1.003.671-.679 1.007-1.567 1.007-2.665 0-1.055-.336-1.912-.996-2.591s-1.552-1.014-2.653-1.014c-1.08 0-1.961.345-2.632 1.024-.661.679-.996 1.546-.996 2.581 0 1.149.325 2.048.965 2.696s1.531.972 2.663.972z"/><path d="m53.603 18.138c.032-.92.325-1.505.744-1.703v-.136h-1.908v.136c.472.209.713.773.744 1.693l.074 3.062-4.216-4.89h-1.415v.136c.514.418.776 1.118.797 2.111l-.073 2.926c-.032.951-.325 1.536-.744 1.735v.136h1.929v-.136c-.419-.199-.724-.773-.755-1.735l-.105-3.218 4.624 5.287h.189l.115-5.402z"/><path d="m61.721 17.605c0-.596.147-.993.44-1.17v-.136h-2.391v.136c.294.178.441.564.441 1.17v4.431c0 .606-.147.993-.441 1.17v.136h2.391v-.136c-.294-.178-.44-.575-.44-1.17z"/><path d="m9.97 29.035.695 2.056.699-2.056h.555l-.92 2.597h-.666l-.92-2.597h.555z"/><path d="m15.66 29.035v2.597h-.519v-2.597z"/><path d="m21.271 31.632h-.519l-1.162-1.766v1.766h-.519v-2.597h.519l1.162 1.78v-1.78h.519z"/><path d="m25.202 29.447v.673h.92v.397h-.92v.699h1.03v.416h-1.549v-2.597h1.549v.412z"/><path d="m31.651 29.035-.879 1.688v.909h-.522v-.909l-.883-1.688h.596l.552 1.137.552-1.137h.585z"/><path d="m36.453 31.11h-1.041l-.184.522h-.548l.956-2.567h.592l.953 2.567h-.548zm-.14-.394-.383-1.096-.383 1.096h.765z"/><path d="m41.757 31.632-.607-1.012h-.228v1.012h-.519v-2.597h.989c.302 0 .531.074.688.221.159.147.239.341.239.581 0 .196-.055.36-.166.493-.108.132-.265.221-.471.265l.647 1.037h-.574zm-.835-1.368h.427c.297 0 .445-.131.445-.394 0-.125-.037-.222-.11-.291-.071-.071-.183-.107-.335-.107h-.427v.791z"/><path d="m47.897 30.33c0 .257-.054.484-.162.68s-.265.349-.471.46c-.203.108-.446.162-.728.162h-.923v-2.597h.923c.282 0 .525.054.728.162.206.105.363.256.471.452.108.194.162.421.162.68zm-1.405.839c.28 0 .495-.074.647-.221.154-.147.232-.353.232-.618 0-.267-.077-.474-.232-.622-.152-.147-.368-.221-.647-.221h-.36v1.681h.36z"/><path d="m53.012 30.922c0 .132-.033.255-.099.368-.066.11-.164.2-.294.268-.13.066-.288.099-.474.099-.184 0-.348-.031-.493-.092-.145-.064-.261-.154-.349-.272-.086-.118-.135-.255-.147-.412h.552c.012.105.054.194.125.265.074.069.17.103.291.103.108 0 .19-.028.246-.085.059-.059.088-.134.088-.224 0-.081-.024-.147-.07-.199-.047-.054-.106-.097-.177-.129s-.169-.069-.294-.11c-.162-.054-.294-.107-.397-.158-.103-.054-.191-.131-.265-.232-.071-.101-.107-.232-.107-.394 0-.223.079-.398.239-.526.162-.13.375-.195.64-.195.274 0 .493.066.655.199.164.132.257.309.28.53h-.559c-.015-.093-.054-.169-.118-.228-.064-.061-.151-.092-.261-.092-.096 0-.173.026-.232.077-.059.049-.088.121-.088.217 0 .076.022.14.066.191.046.049.104.09.173.121.071.032.167.067.287.107.167.059.302.114.405.166.105.052.195.129.269.232s.11.238.11.405z"/><g fill="#c96838"><path d="m31.619 10.299c-.148 0-.296-.113-.333-.301s.111-.338.259-.376c.593-.075 1.704-.376 2.483-1.353.63-.789.593-2.143.556-2.781l-1.186.301c-.148.038-.296-.038-.371-.188s0-.301.111-.413c.037 0 .667-.489.778-1.466.037-.526-.296-1.09-.593-1.466l-.667.714c-.074.075-.222.113-.334.075s-.222-.113-.222-.263c-.111-.489-.556-1.879-1.223-2.142-.667.226-1.112 1.654-1.223 2.142-.037.113-.111.226-.222.263s-.259 0-.333-.075l-.667-.714c-.296.376-.63.94-.593 1.466.111 1.015.778 1.466.778 1.466.148.075.185.263.111.413s-.222.226-.371.188l-1.149-.263c-.037.639-.074 1.955.556 2.744.741.977 1.89 1.278 2.483 1.353.185.038.296.188.259.376s-.185.301-.371.263c-.704-.113-2.001-.451-2.89-1.616-1-1.316-.667-3.533-.63-3.646 0-.075.074-.188.148-.226s.185-.075.259-.038l.556.15c-.148-.301-.296-.677-.334-1.128-.111-1.128.963-2.218 1-2.255.074-.075.148-.075.222-.113.074 0 .185.038.222.113l.519.564c.222-.714.741-1.879 1.63-2.067h.148c.852.188 1.371 1.353 1.63 2.067l.519-.564c.074-.075.148-.113.222-.113.111 0 .185.038.222.113.037.038 1.112 1.128 1 2.255-.037.451-.185.827-.334 1.128l.556-.15c.074-.038.185 0 .259.038s.111.113.148.226c0 .113.371 2.33-.63 3.646-.889 1.165-2.186 1.504-2.89 1.616-.037.038-.037.038-.074.038z"/><path d="m30.619 9.397h-.037c-.185-.038-.296-.188-.296-.376.111-.752.148-1.503.185-2.293 0-.601 0-1.24-.037-1.842 0-.188.111-.338.296-.338s.333.113.333.301c.037.639.037 1.278.037 1.879-.037.789-.074 1.579-.185 2.33 0 .226-.111.338-.296.338z"/><path d="m30.841 7.931c-.074 0-.148-.038-.222-.075-.148-.113-.148-.338-.037-.451.111-.15.296-.338.445-.489.148-.188.296-.338.408-.489s.334-.15.445-.038c.148.113.148.338.037.451-.111.15-.296.301-.445.489s-.296.338-.445.489c0 .075-.111.113-.185.113z"/><path d="m20.985 9.998c-.259 0-.519-.038-.778-.113-.926-.301-1.593-1.128-1.779-2.105-.222-1.316.593-2.556 1.445-2.969 2.816-1.353 5.817.752 7.67 3.157.111.15.074.338-.074.451s-.334.075-.445-.075c-.593-.752-3.668-4.51-6.892-2.969-.556.263-1.26 1.203-1.112 2.255.111.714.667 1.353 1.334 1.579.704.226 1.519.038 2.038-.526.296-.301.334-.902.074-1.316-.259-.376-.667-.451-1.223-.226-.148.075-.371 0-.445-.188-.074-.15 0-.376.185-.413.815-.338 1.593-.15 2.001.489.445.677.371 1.616-.148 2.142-.445.526-1.149.827-1.853.827z"/><path d="m40.846 9.998c-.704 0-1.408-.301-1.927-.827s-.593-1.466-.148-2.142c.408-.639 1.186-.827 2.001-.489.148.075.26.263.185.413-.074.188-.259.263-.408.188-.519-.226-.963-.15-1.223.226-.259.413-.222 1.015.074 1.316.556.564 1.371.752 2.038.526s1.223-.864 1.334-1.579c.185-1.052-.519-1.992-1.112-2.255-3.187-1.541-6.299 2.18-6.892 2.969-.111.15-.334.188-.445.075-.148-.113-.185-.338-.074-.451 1.853-2.406 4.854-4.51 7.67-3.157.852.413 1.668 1.654 1.445 2.969-.148.977-.852 1.804-1.778 2.105-.185.075-.445.113-.741.113z"/></g></svg>